<svg xmlns="http://www.w3.org/2000/svg" width="600" height="600" viewBox="0 0 600 600"><defs><linearGradient id="bg" x1="0" y1="0" x2="0" y2="1"><stop offset="0" stop-color="#0b1030"/><stop offset="1" stop-color="#04050d"/></linearGradient><radialGradient id="nb" cx="0.3" cy="0.25" r="0.9"><stop offset="0" stop-color="#f5d9a0" stop-opacity="0.3"/><stop offset="1" stop-color="#f5d9a0" stop-opacity="0"/></radialGradient></defs><rect width="600" height="600" fill="url(#bg)"/><rect width="600" height="600" fill="url(#nb)"/><circle cx="62" cy="480" r="1.8" fill="#e9ecff" fill-opacity="0.61"/><circle cx="467" cy="337" r="2.0" fill="#e9ecff" fill-opacity="0.48"/><circle cx="550" cy="493" r="0.8" fill="#e9ecff" fill-opacity="0.57"/><circle cx="449" cy="389" r="0.8" fill="#e9ecff" fill-opacity="0.62"/><circle cx="561" cy="72" r="0.7" fill="#e9ecff" fill-opacity="0.56"/><circle cx="103" cy="40" r="0.7" fill="#e9ecff" fill-opacity="0.47"/><circle cx="119" cy="436" r="1.0" fill="#e9ecff" fill-opacity="0.35"/><circle cx="236" cy="510" r="1.5" fill="#e9ecff" fill-opacity="0.22"/><circle cx="319" cy="350" r="0.7" fill="#e9ecff" fill-opacity="0.26"/><circle cx="32" cy="34" r="1.8" fill="#e9ecff" fill-opacity="0.56"/><circle cx="380" cy="23" r="1.9" fill="#e9ecff" fill-opacity="0.23"/><circle cx="446" cy="22" r="1.6" fill="#e9ecff" fill-opacity="0.30"/><circle cx="30" cy="184" r="0.6" fill="#e9ecff" fill-opacity="0.46"/><circle cx="77" cy="338" r="1.3" fill="#e9ecff" fill-opacity="0.55"/><circle cx="333" cy="284" r="1.4" fill="#e9ecff" fill-opacity="0.65"/><circle cx="383" cy="271" r="1.2" fill="#e9ecff" fill-opacity="0.55"/><circle cx="361" cy="34" r="0.8" fill="#e9ecff" fill-opacity="0.36"/><circle cx="10" cy="191" r="1.2" fill="#e9ecff" fill-opacity="0.22"/><circle cx="118" cy="42" r="1.2" fill="#e9ecff" fill-opacity="0.58"/><circle cx="255" cy="527" r="0.9" fill="#e9ecff" fill-opacity="0.51"/><circle cx="432" cy="95" r="1.4" fill="#e9ecff" fill-opacity="0.65"/><circle cx="387" cy="421" r="1.4" fill="#e9ecff" fill-opacity="0.40"/><circle cx="395" cy="82" r="1.6" fill="#e9ecff" fill-opacity="0.35"/><circle cx="538" cy="438" r="1.7" fill="#e9ecff" fill-opacity="0.47"/><circle cx="8" cy="85" r="1.7" fill="#e9ecff" fill-opacity="0.59"/><circle cx="159" cy="412" r="1.1" fill="#e9ecff" fill-opacity="0.39"/><circle cx="524" cy="195" r="0.6" fill="#e9ecff" fill-opacity="0.61"/><circle cx="535" cy="597" r="2.0" fill="#e9ecff" fill-opacity="0.65"/><circle cx="27" cy="451" r="1.4" fill="#e9ecff" fill-opacity="0.48"/><circle cx="414" cy="13" r="0.9" fill="#e9ecff" fill-opacity="0.64"/><circle cx="295" cy="159" r="1.8" fill="#e9ecff" fill-opacity="0.38"/><circle cx="575" cy="374" r="1.3" fill="#e9ecff" fill-opacity="0.34"/><circle cx="491" cy="318" r="0.7" fill="#e9ecff" fill-opacity="0.25"/><circle cx="544" cy="78" r="1.9" fill="#e9ecff" fill-opacity="0.26"/><circle cx="52" cy="363" r="1.5" fill="#e9ecff" fill-opacity="0.56"/><circle cx="198" cy="191" r="2.0" fill="#e9ecff" fill-opacity="0.38"/><circle cx="332" cy="174" r="2.1" fill="#e9ecff" fill-opacity="0.44"/><circle cx="63" cy="526" r="0.8" fill="#e9ecff" fill-opacity="0.59"/><ellipse cx="300" cy="390" rx="150" ry="26" fill="#1c2250"/><ellipse cx="300" cy="382" rx="96" ry="17" fill="#2a3568"/><path d="M300 300 C 302.4 322.5, 307.5 327.6, 330 330 C 307.5 332.4, 302.4 337.5, 300 360 C 297.6 337.5, 292.5 332.4, 270 330 C 292.5 327.6, 297.6 322.5, 300 300 Z" fill="#f5d9a0" fill-opacity="0.9"/><path d="M440 158 C 440.96 167.0, 443.0 169.04, 452 170 C 443.0 170.96, 440.96 173.0, 440 182 C 439.04 173.0, 437.0 170.96, 428 170 C 437.0 169.04, 439.04 167.0, 440 158 Z" fill="#e9ecff" fill-opacity="0.9"/><path d="M160 231 C 160.72 237.75, 162.25 239.28, 169 240 C 162.25 240.72, 160.72 242.25, 160 249 C 159.28 242.25, 157.75 240.72, 151 240 C 157.75 239.28, 159.28 237.75, 160 231 Z" fill="#8ea2ff" fill-opacity="0.85"/><path d="M300 352 C 340 352, 360 330, 390 336" stroke="#8ea2ff" stroke-opacity="0.5" fill="none" stroke-width="2"/></svg>